<?xml version="1.0" encoding="utf-8"?>
<!-- Generator: Adobe Illustrator 21.1.0, SVG Export Plug-In . SVG Version: 6.00 Build 0)  -->
<svg version="1.1" id="Layer_1" xmlns="http://www.w3.org/2000/svg" xmlns:xlink="http://www.w3.org/1999/xlink" x="0px" y="0px"
	 viewBox="0 0 1366 768" style="enable-background:new 0 0 1366 768;" xml:space="preserve">
<style type="text/css">
	.st0{fill:#5ECF54;}
</style>
<g>
	<polygon points="533.2,377.4 531.3,382.4 546.6,382.4 	"/>
	<polygon points="457.1,578.2 472.5,578.2 470.6,583.3 	"/>
	<polygon points="531.3,382.4 457.1,578.2 472.5,578.2 	"/>
	<polygon points="531.3,382.4 546.6,382.4 472.5,578.2 	"/>
	<polygon points="576.9,377.4 563.4,382.4 578.8,382.4 	"/>
	<polygon points="637.8,578.2 653.2,578.2 639.8,583.3 	"/>
	<polygon points="563.4,382.4 637.8,578.2 653.2,578.2 	"/>
	<polygon points="563.4,382.4 578.8,382.4 653.2,578.2 	"/>
	<polygon points="680.6,182 676,182.2 683.9,182.2 	"/>
	<polygon points="676,182.2 675.5,182.5 685.1,182.5 	"/>
	<polygon points="676,182.2 683.9,182.2 685.1,182.5 	"/>
	<polygon points="675.5,182.5 671.4,183.4 688.5,183.4 	"/>
	<polygon points="675.5,182.5 685.1,182.5 688.5,183.4 	"/>
	<polygon points="671.4,183.4 671,183.9 689.4,183.9 	"/>
	<polygon points="671.4,183.4 688.5,183.4 689.4,183.9 	"/>
	<polygon points="671,183.9 666.6,186.1 693.5,186.1 	"/>
	<polygon points="671,183.9 689.4,183.9 693.5,186.1 	"/>
	<polygon points="666.6,186.1 660.9,189 697.1,189 	"/>
	<polygon points="666.6,186.1 693.5,186.1 697.1,189 	"/>
	<polygon points="660.9,189 660.2,189.2 697.4,189.2 	"/>
	<polygon points="660.9,189 697.1,189 697.4,189.2 	"/>
	<polygon points="660.2,189.2 657,192.3 700,192.3 	"/>
	<polygon points="660.2,189.2 697.4,189.2 700,192.3 	"/>
	<polygon points="657,192.3 653,196.4 702.2,196.4 	"/>
	<polygon points="657,192.3 700,192.3 702.2,196.4 	"/>
	<polygon points="653,196.4 648.6,200.7 703.6,200.7 	"/>
	<polygon points="653,196.4 702.2,196.4 703.6,200.7 	"/>
	<polygon points="648.6,200.7 635.9,206.5 703.8,206.5 	"/>
	<polygon points="648.6,200.7 703.6,200.7 703.8,206.5 	"/>
	<polygon points="635.9,206.5 635.2,222.6 704.8,222.6 	"/>
	<polygon points="635.9,206.5 703.8,206.5 704.8,222.6 	"/>
	<polygon points="635.2,222.6 634.7,228.3 708.6,228.3 	"/>
	<polygon points="635.2,222.6 704.8,222.6 708.6,228.3 	"/>
	<polygon points="634.7,228.3 647,237.4 715.1,237.4 	"/>
	<polygon points="634.7,228.3 708.6,228.3 715.1,237.4 	"/>
	<polygon points="647,237.4 648.6,238.6 713.9,238.6 	"/>
	<polygon points="647,237.4 715.1,237.4 713.9,238.6 	"/>
	<polygon points="648.6,238.6 656.6,244.2 707.9,244.2 	"/>
	<polygon points="648.6,238.6 713.9,238.6 707.9,244.2 	"/>
	<polygon points="656.6,244.2 656.6,252.3 699.5,252.3 	"/>
	<polygon points="656.6,244.2 707.9,244.2 699.5,252.3 	"/>
	<polygon points="670.5,252.3 676,253.5 698.3,253.5 	"/>
	<polygon points="670.5,252.3 699.5,252.3 698.3,253.5 	"/>
	<polygon points="678.4,259.3 692.3,259.3 689.9,261.4 	"/>
	<polygon points="676,253.5 678.4,259.3 692.3,259.3 	"/>
	<polygon points="676,253.5 698.3,253.5 692.3,259.3 	"/>
	<polygon points="439.1,292.6 436,299.8 456.4,299.8 	"/>
	<polygon points="654.6,390.8 675,390.8 671.9,398 	"/>
	<polygon points="436,299.8 654.6,390.8 675,390.8 	"/>
	<polygon points="436,299.8 456.4,299.8 675,390.8 	"/>
	<polygon points="739.1,235 717.3,238.6 744.4,238.6 	"/>
	<polygon points="717.3,238.6 715.1,242.7 750.6,242.7 	"/>
	<polygon points="717.3,238.6 744.4,238.6 750.6,242.7 	"/>
	<polygon points="715.1,242.7 714.2,244.6 753.3,244.6 	"/>
	<polygon points="715.1,242.7 750.6,242.7 753.3,244.6 	"/>
	<polygon points="714.2,244.6 710.1,250.4 760.7,250.4 	"/>
	<polygon points="714.2,244.6 753.3,244.6 760.7,250.4 	"/>
	<polygon points="710.1,250.4 709.6,251.1 761.4,251.1 	"/>
	<polygon points="710.1,250.4 760.7,250.4 761.4,251.1 	"/>
	<polygon points="709.6,251.1 705.3,255.7 766.7,255.7 	"/>
	<polygon points="709.6,251.1 761.4,251.1 766.7,255.7 	"/>
	<polygon points="705.3,255.7 699.8,260 771.5,260 	"/>
	<polygon points="705.3,255.7 766.7,255.7 771.5,260 	"/>
	<polygon points="699.8,260 699.5,260.2 771.8,260.2 	"/>
	<polygon points="699.8,260 771.5,260 771.8,260.2 	"/>
	<polygon points="699.5,260.2 693.8,263.6 775.1,263.6 	"/>
	<polygon points="699.5,260.2 771.8,260.2 775.1,263.6 	"/>
	<polygon points="693.8,263.6 687.5,266.5 778,266.5 	"/>
	<polygon points="693.8,263.6 775.1,263.6 778,266.5 	"/>
	<polygon points="687.5,266.5 680.8,268.4 779.7,268.4 	"/>
	<polygon points="687.5,266.5 778,266.5 779.7,268.4 	"/>
	<polygon points="680.8,268.4 680.1,269.8 781.4,269.8 	"/>
	<polygon points="680.8,268.4 779.7,268.4 781.4,269.8 	"/>
	<polygon points="680.1,269.8 676.2,280.4 790.2,280.4 	"/>
	<polygon points="680.1,269.8 781.4,269.8 790.2,280.4 	"/>
	<polygon points="676.2,280.4 674.1,285.9 794.3,285.9 	"/>
	<polygon points="676.2,280.4 790.2,280.4 794.3,285.9 	"/>
	<polygon points="674.1,285.9 672.4,291.4 798.4,291.4 	"/>
	<polygon points="674.1,285.9 794.3,285.9 798.4,291.4 	"/>
	<polygon points="672.4,291.4 671,296.2 801.5,296.2 	"/>
	<polygon points="672.4,291.4 798.4,291.4 801.5,296.2 	"/>
	<polygon points="714.9,296.2 724.2,302.7 805.4,302.7 	"/>
	<polygon points="714.9,296.2 801.5,296.2 805.4,302.7 	"/>
	<polygon points="724.2,302.7 724.7,303 805.6,303 	"/>
	<polygon points="724.2,302.7 805.4,302.7 805.6,303 	"/>
	<polygon points="671,296.2 668.8,304.2 707.2,304.2 	"/>
	<polygon points="671,296.2 714.9,296.2 707.2,304.2 	"/>
	<polygon points="724.7,303 732.9,309.7 809.2,309.7 	"/>
	<polygon points="724.7,303 805.6,303 809.2,309.7 	"/>
	<polygon points="732.9,309.7 738.4,315.2 812.1,315.2 	"/>
	<polygon points="732.9,309.7 809.2,309.7 812.1,315.2 	"/>
	<polygon points="738.4,315.2 740.8,317.4 813.3,317.4 	"/>
	<polygon points="738.4,315.2 812.1,315.2 813.3,317.4 	"/>
	<polygon points="668.8,304.2 643.1,322.6 688.5,322.6 	"/>
	<polygon points="668.8,304.2 707.2,304.2 688.5,322.6 	"/>
	<polygon points="740.8,317.4 748.2,325.8 816.9,325.8 	"/>
	<polygon points="740.8,317.4 813.3,317.4 816.9,325.8 	"/>
	<polygon points="748.2,325.8 749.4,327.7 817.8,327.7 	"/>
	<polygon points="748.2,325.8 816.9,325.8 817.8,327.7 	"/>
	<polygon points="749.4,327.7 755,334.9 820.5,334.9 	"/>
	<polygon points="749.4,327.7 817.8,327.7 820.5,334.9 	"/>
	<polygon points="643.1,322.6 623.4,337 674.1,337 	"/>
	<polygon points="643.1,322.6 688.5,322.6 674.1,337 	"/>
	<polygon points="755,334.9 758.3,340.6 822.4,340.6 	"/>
	<polygon points="755,334.9 820.5,334.9 822.4,340.6 	"/>
	<polygon points="623.4,337 617.7,341.4 657.3,341.4 	"/>
	<polygon points="623.4,337 674.1,337 657.3,341.4 	"/>
	<polygon points="758.3,340.6 760.7,344.2 823.6,344.2 	"/>
	<polygon points="758.3,340.6 822.4,340.6 823.6,344.2 	"/>
	<polygon points="629,348.1 630.4,348.1 629.4,348.3 	"/>
	<polygon points="760.7,344.2 761.7,348.1 824.6,348.1 	"/>
	<polygon points="760.7,344.2 823.6,344.2 824.6,348.1 	"/>
	<polygon points="617.7,341.4 629,348.1 630.4,348.1 	"/>
	<polygon points="617.7,341.4 657.3,341.4 630.4,348.1 	"/>
	<polygon points="761.7,348.1 761.7,351.7 825.8,351.7 	"/>
	<polygon points="761.7,348.1 824.6,348.1 825.8,351.7 	"/>
	<polygon points="761.7,351.7 761.4,353.6 826.2,353.6 	"/>
	<polygon points="761.7,351.7 825.8,351.7 826.2,353.6 	"/>
	<polygon points="761.4,353.6 761.2,355.5 826.7,355.5 	"/>
	<polygon points="761.4,353.6 826.2,353.6 826.7,355.5 	"/>
	<polygon points="761.2,355.5 759.8,358.9 827.4,358.9 	"/>
	<polygon points="761.2,355.5 826.7,355.5 827.4,358.9 	"/>
	<polygon points="759.8,358.9 757.6,362 828.2,362 	"/>
	<polygon points="759.8,358.9 827.4,358.9 828.2,362 	"/>
	<polygon points="757.6,362 755,364.6 828.6,364.6 	"/>
	<polygon points="757.6,362 828.2,362 828.6,364.6 	"/>
	<polygon points="755,364.6 752.1,367 829.1,367 	"/>
	<polygon points="755,364.6 828.6,364.6 829.1,367 	"/>
	<polygon points="752.1,367 745.8,373 830.3,373 	"/>
	<polygon points="752.1,367 829.1,367 830.3,373 	"/>
	<polygon points="745.8,373 740.1,378.1 830.8,378.1 	"/>
	<polygon points="745.8,373 830.3,373 830.8,378.1 	"/>
	<polygon points="740.1,378.1 739.4,379 830.8,379 	"/>
	<polygon points="740.1,378.1 830.8,378.1 830.8,379 	"/>
	<polygon points="739.4,379 733.4,384.8 830.3,384.8 	"/>
	<polygon points="739.4,379 830.8,379 830.3,384.8 	"/>
	<polygon points="733.4,384.8 727.6,390.6 828.9,390.6 	"/>
	<polygon points="733.4,384.8 830.3,384.8 828.9,390.6 	"/>
	<polygon points="727.6,390.6 725.9,392.2 828.4,392.2 	"/>
	<polygon points="727.6,390.6 828.9,390.6 828.4,392.2 	"/>
	<polygon points="725.9,392.2 722.6,396.3 826.7,396.3 	"/>
	<polygon points="725.9,392.2 828.4,392.2 826.7,396.3 	"/>
	<polygon points="722.6,396.3 717.8,401.4 823.8,401.4 	"/>
	<polygon points="722.6,396.3 826.7,396.3 823.8,401.4 	"/>
	<polygon points="717.8,401.4 713.4,406.2 820.2,406.2 	"/>
	<polygon points="717.8,401.4 823.8,401.4 820.2,406.2 	"/>
	<polygon points="713.4,406.2 712.7,407.1 819.3,407.1 	"/>
	<polygon points="713.4,406.2 820.2,406.2 819.3,407.1 	"/>
	<polygon points="712.7,407.1 710.1,410.5 816.2,410.5 	"/>
	<polygon points="712.7,407.1 819.3,407.1 816.2,410.5 	"/>
	<polygon points="710.1,410.5 707.2,413.8 811.4,413.8 	"/>
	<polygon points="710.1,410.5 816.2,410.5 811.4,413.8 	"/>
	<polygon points="707.2,413.8 707.2,414.1 759.5,414.1 	"/>
	<polygon points="707.2,413.8 811.4,413.8 759.5,414.1 	"/>
	<polygon points="707.2,414.1 700,422.7 759.5,422.7 	"/>
	<polygon points="707.2,414.1 759.5,414.1 759.5,422.7 	"/>
	<polygon points="700,422.7 698.6,424.6 759.8,424.6 	"/>
	<polygon points="700,422.7 759.5,422.7 759.8,424.6 	"/>
	<polygon points="698.6,424.6 688.2,438.8 742.7,438.8 	"/>
	<polygon points="698.6,424.6 759.8,424.6 742.7,438.8 	"/>
	<polygon points="688.2,438.8 687,442.2 738.9,442.2 	"/>
	<polygon points="688.2,438.8 742.7,438.8 738.9,442.2 	"/>
	<polygon points="687,442.2 685.1,446.5 733.8,446.5 	"/>
	<polygon points="687,442.2 738.9,442.2 733.8,446.5 	"/>
	<polygon points="685.1,446.5 683.7,460.4 718.5,460.4 	"/>
	<polygon points="685.1,446.5 733.8,446.5 718.5,460.4 	"/>
	<polygon points="683.7,460.4 682,473.6 718.5,473.6 	"/>
	<polygon points="683.7,460.4 718.5,460.4 718.5,473.6 	"/>
	<polygon points="682,473.6 680.6,486.6 717.3,486.6 	"/>
	<polygon points="682,473.6 718.5,473.6 717.3,486.6 	"/>
	<polygon points="680.6,486.6 678.4,503.4 711.8,503.4 	"/>
	<polygon points="680.6,486.6 717.3,486.6 711.8,503.4 	"/>
	<polygon points="678.4,503.4 676.5,519.9 705,519.9 	"/>
	<polygon points="678.4,503.4 711.8,503.4 705,519.9 	"/>
	<polygon points="676.5,519.9 674.6,536 697.8,536 	"/>
	<polygon points="676.5,519.9 705,519.9 697.8,536 	"/>
	<polygon points="674.6,536 670.5,571.3 687.8,571.3 	"/>
	<polygon points="674.6,536 697.8,536 687.8,571.3 	"/>
	<polygon points="670.5,571.3 670.2,572.5 688,572.5 	"/>
	<polygon points="670.5,571.3 687.8,571.3 688,572.5 	"/>
	<polygon points="670.2,572.5 638.3,579.7 689,579.7 	"/>
	<polygon points="670.2,572.5 688,572.5 689,579.7 	"/>
	<polygon points="638.3,579.7 639.8,583.3 689.7,583.3 	"/>
	<polygon points="638.3,579.7 689,579.7 689.7,583.3 	"/>
	<polygon points="639.8,583.3 641.4,584.2 689.9,584.2 	"/>
	<polygon points="639.8,583.3 689.7,583.3 689.9,584.2 	"/>
	<polygon points="641.4,584.2 642.4,584.2 689.9,584.2 	"/>
	<polygon points="641.4,584.2 689.9,584.2 689.9,584.2 	"/>
	<polygon points="650.1,585.2 672.2,585.2 654.2,585.9 	"/>
	<polygon points="642.4,584.2 650.1,585.2 672.2,585.2 	"/>
	<polygon points="642.4,584.2 689.9,584.2 672.2,585.2 	"/>
	<polygon class="st0" points="759.5,413.8 759.5,435.4 847.6,413.8 	"/>
	<polygon class="st0" points="759.5,435.4 847.6,413.8 847.6,435.4 	"/>
	<polygon points="847.6,413.8 847.6,435.7 927.8,435.7 	"/>
	<polygon points="847.6,413.8 927.8,413.8 927.8,435.7 	"/>
	<polygon points="759.3,435.7 759.3,441.9 927.8,441.9 	"/>
	<polygon points="759.3,435.7 927.8,435.7 927.8,441.9 	"/>
	<polygon points="759.3,441.9 759.3,482.7 794.6,482.7 	"/>
	<polygon points="759.3,441.9 794.6,441.9 794.6,482.7 	"/>
	<polygon points="759.3,482.7 759.3,511.3 875.2,511.3 	"/>
	<polygon points="759.3,482.7 875.2,482.7 875.2,511.3 	"/>
	<polygon points="759.3,511.3 759.3,557.8 794.6,557.8 	"/>
	<polygon points="759.3,511.3 794.6,511.3 794.6,557.8 	"/>
	<polygon points="759.3,557.8 759.3,586.9 927.8,586.9 	"/>
	<polygon points="759.3,557.8 927.8,557.8 927.8,586.9 	"/>
</g>
</svg>
